<svg width="904" height="336" viewBox="0 0 904 336" fill="none" xmlns="http://www.w3.org/2000/svg">
<g clip-path="url(#clip0_1705_2610)">
<path d="M876.4 203.54C891.273 203.54 903.33 191.483 903.33 176.61C903.33 161.737 891.273 149.68 876.4 149.68C861.527 149.68 849.47 161.737 849.47 176.61C849.47 191.483 861.527 203.54 876.4 203.54Z" fill="white" stroke="white" stroke-width="0.07" stroke-miterlimit="10"/>
<path d="M838.79 175.98L838.46 175.77C838.05 175.51 837.64 175.25 837.23 175.01C836.39 174.52 835.53 174.06 834.67 173.6L845.1 172.01C845.63 171.99 846.15 171.94 846.67 171.86C848.09 171.74 849.63 171.65 851.37 171.57C857.77 171.27 862.81 165.99 862.81 159.58V111.71C862.81 98.4 859.31 86.94 852.41 77.65C845.72 68.65 836.4 61.76 824.7 57.17C813.72 52.88 800.81 50.7 786.32 50.7C772.88 50.7 760.68 52.85 750.04 57.08C739.03 61.47 730 67.67 723.22 75.52C717.8 81.79 714.07 88.96 712.08 96.9C707.05 84.94 698.95 75.11 687.89 67.59C673.68 57.92 656.16 53.02 635.83 53.02C619.82 53.02 605.4 56.25 592.95 62.63C580.28 69.11 570.21 78.13 562.99 89.44C561.66 91.52 560.46 93.67 559.37 95.87C558.16 91.03 556.52 86.53 554.44 82.41C549.27 72.17 541.63 64.2 531.72 58.71C522.15 53.41 510.49 50.72 497.06 50.72C483.63 50.72 472.98 53.26 463.64 58.27C462.16 59.06 460.73 59.9 459.35 60.78C457.47 56.5 453.21 53.6 448.36 53.6H412.71C407.7 53.6 403.42 56.67 401.62 61.02C400.57 58.47 398.66 56.36 396.26 55.05C403.39 49.13 407.16 41.25 407.16 32.2C407.16 23.15 403.2 14.62 395.7 8.63999C388.92 3.23999 380.31 0.49999 370.13 0.49999C359.95 0.49999 351.58 3.25999 344.87 8.70999C337.52 14.68 333.64 22.8 333.64 32.2C333.64 41.6 337.32 49.01 344.26 54.92C340.38 56.91 337.73 60.94 337.73 65.59V160.9C337.73 164.34 339.21 167.62 341.79 169.9C344 171.85 346.82 172.9 349.73 172.9C350.23 172.9 350.73 172.87 351.22 172.81C354.78 172.36 358.28 172.04 361.78 171.82C358.76 172.86 355.84 174.07 353.01 175.45C351.36 176.25 349.73 177.13 348.16 178.04C335.54 185.36 325.53 195.48 318.42 208.11C314.08 215.81 311.06 224.27 309.37 233.38C307.85 231.21 306.34 229.04 304.85 226.89C297.14 215.79 289.21 204.4 281.05 193.72C286.17 198.35 291.31 203 296.41 207.57C298.66 209.58 301.52 210.64 304.42 210.64C306.08 210.64 307.75 210.3 309.33 209.59C313.66 207.65 316.44 203.34 316.42 198.6C316.38 184.61 314.54 164.43 299.74 147.83C300.81 147.67 301.87 147.39 302.89 146.93C306.99 145.1 309.73 141.13 309.99 136.65C310.98 119.12 305.5 105.43 293.22 94.8C291.82 93.59 290.42 92.36 289.02 91.12C289.79 89.31 290.12 87.31 289.92 85.26C289.44 80.37 288.99 75.69 288.56 71.18C287.39 59 286.29 47.5 284.99 36.27C284.45 31.59 282.1 24.66 277.28 20.56C269.78 14.18 262.37 8.02999 254.18 3.05999C251.41 1.37999 248.11 0.48999 244.63 0.48999C238.68 0.48999 232.98 3.05999 229.38 7.34999C225.31 12.21 223.43 20.46 223.75 31.87C216.77 27.91 207.41 25.64 197.39 25.64C191.69 25.64 181 26.47 173.37 32.03C171.56 33.35 170.19 35.13 169.36 37.15C165.46 34.53 160.26 31.63 154.06 31.63C153.32 31.63 152.59 31.67 151.87 31.76C141.61 32.95 131.33 34.64 121.38 36.27C117.75 36.87 114.13 37.46 110.5 38.03C106.48 38.67 103.15 41.28 101.49 44.83C87.88 38.54 74.04 33.06 60 28.43C53.01 26.12 46.05 24.51 39.91 23.08C37.3 22.47 34.83 21.9 32.53 21.31C31.55 21.06 30.55 20.94 29.57 20.94C26.15 20.94 22.83 22.41 20.52 25.06C20.28 25.33 20.07 25.61 19.86 25.9C19.43 25.85 18.99 25.82 18.56 25.82C17.85 25.82 17.14 25.88 16.43 26.01C11.2 26.95 7.21002 31.23 6.63002 36.51C6.11002 41.2 5.69002 45.6 5.28002 49.85C4.43002 58.65 3.69002 66.26 2.45002 73.75C-0.859981 93.76 -2.08998 118.53 17.45 133.71C17.53 133.86 17.62 134.02 17.7 134.16C18.08 134.86 18.56 135.73 19.13 136.62C41.68 171.78 56.43 216.23 67.89 255.07C68.68 257.74 69.43 260.43 70.19 263.11C70.55 264.4 70.92 265.69 71.28 266.98C72.76 272.2 77.53 275.7 82.81 275.7C83.23 275.7 83.65 275.67 84.08 275.62C84.87 281.75 85.63 287.96 86.35 294.26C86.92 299.28 87.49 303.42 89.06 307.19C91.92 314.04 97.68 318.06 104.87 318.23C147 319.2 189.87 320.56 231.32 321.88C248.45 322.43 265.57 322.97 282.7 323.49C283.62 323.52 285.21 323.84 286.75 324.15C289.42 324.69 292.46 325.3 295.79 325.3C304.89 325.3 310.16 320.64 312.98 316.73C316.61 311.7 318.46 304.74 319.98 296.62C326.99 307.97 336.48 317.12 348.23 323.83C360.81 331.02 375.4 334.66 391.6 334.66C412.04 334.66 429.71 328.95 444.15 317.7C455.82 308.6 464.12 296.88 468.95 282.77C470.18 285.69 471.58 288.54 473.15 291.29C480.34 303.88 490.23 313.92 502.54 321.14C514.88 328.37 528.91 332.04 544.25 332.04C559.59 332.04 573.89 328.37 586.24 321.14C598.54 313.93 608.43 303.89 615.63 291.3C615.97 290.71 616.29 290.11 616.61 289.52V316.78C616.61 323.41 621.98 328.78 628.61 328.78H669.43C676.06 328.78 681.43 323.41 681.43 316.78V255.56C681.43 250.13 682.04 245.73 683.26 242.47C684.27 239.76 685.55 237.76 687.18 236.37C688.98 234.83 691.17 233.73 693.87 233.01C697.3 232.1 701.25 231.64 705.63 231.64H713.39C712.32 237.47 711.78 243.54 711.78 249.84C711.78 265.69 715.38 280.01 722.48 292.4C729.64 304.91 739.67 314.77 752.27 321.71C764.72 328.56 779.21 332.04 795.34 332.04C807.73 332.04 819.31 329.61 829.74 324.82C840.12 320.05 849.06 313.47 856.31 305.26C863.62 296.98 868.87 287.52 871.9 277.14C872.81 274.01 872.41 270.67 870.83 267.88C873.28 266.05 875.01 263.3 875.51 260.09C875.94 257.31 876.21 254.53 876.32 251.81C876.42 249.31 876.47 247.15 876.47 245.21C876.47 229.73 872.96 215.77 866.03 203.71C859.43 192.23 850.29 182.89 838.86 175.93L838.79 175.98ZM795.29 221.34C798.02 221.34 800.37 221.76 802.45 222.65H787.93C790.17 221.77 792.6 221.34 795.29 221.34ZM786.04 104.02C786.56 104.02 787.06 104.02 787.52 104.04H784.64C785.09 104.02 785.56 104.02 786.03 104.02H786.04ZM781.68 149.19H785.71C783.91 149.84 781.64 150.17 778.95 150.17C777.57 150.17 776.32 150.05 775.21 149.82C776.51 149.49 778.56 149.19 781.67 149.19H781.68ZM732.47 191.5C732.03 192 731.62 192.53 731.19 193.04V191.43C731.44 191.45 731.68 191.46 731.94 191.48C732.12 191.48 732.29 191.49 732.47 191.5ZM703.84 173.93C705.57 171.68 707.14 169.33 708.56 166.88C708.65 167.19 708.76 167.49 708.86 167.79C707.08 169.48 705.82 171.7 705.33 174.22C704.83 174.13 704.34 174.03 703.84 173.93ZM620.08 116.8C621.59 113.91 623.54 111.78 626.05 110.28C628.63 108.75 631.74 108 635.56 108C639.62 108 642.85 108.8 645.44 110.45C647.61 111.83 648.92 113.54 649.7 115.98C651.28 120.96 655.91 124.34 661.14 124.34H704.41C708.04 124.34 711.48 122.69 713.76 119.86C714.73 118.65 715.43 117.28 715.87 115.84C717.85 117.19 720.2 117.95 722.64 117.95H724.21C720.58 120.65 717.51 123.69 715.03 127.05C713.28 129.42 711.8 131.91 710.59 134.5C708.75 133.39 706.62 132.78 704.41 132.78H661.14C655.88 132.78 651.23 136.21 649.67 141.24C649.17 142.87 648.46 144.09 647.42 145.11C646.15 146.35 644.66 147.29 642.83 147.99C641.5 148.5 639.89 148.84 638.04 149C636.39 149.15 634.84 149.63 633.46 150.37C632.31 149.47 630.97 148.76 629.49 148.32C628.95 148.16 628.43 147.97 627.94 147.77C625.92 146.92 624.23 145.74 622.78 144.14C621.2 142.41 619.99 140.34 619.07 137.8C618.11 135.15 617.62 132 617.62 128.45C617.62 123.86 618.45 119.94 620.07 116.81L620.08 116.8ZM561.85 165.95C561.9 166.03 561.95 166.1 561.99 166.18C561.94 166.18 561.9 166.17 561.85 166.16V165.95ZM401.22 167.48C400.91 167.45 400.6 167.43 400.29 167.4C400.52 167.07 400.74 166.73 400.94 166.38C401.01 166.75 401.11 167.12 401.21 167.48H401.22ZM460.14 257.37H416.87C411.46 257.37 406.72 260.99 405.29 266.21C404.7 268.38 403.83 270.08 402.64 271.41C401.35 272.84 399.86 273.91 398.08 274.68C396.26 275.47 393.97 275.87 391.29 275.87C388.61 275.87 386.21 275.41 384.19 274.44C382.2 273.49 380.5 272.13 379 270.27C377.31 268.17 375.95 265.54 374.96 262.43C373.9 259.12 373.36 255.23 373.36 250.86C373.36 245.19 374.27 240.33 376.07 236.41C377.69 232.88 379.74 230.32 382.35 228.56C384.79 226.92 387.71 226.12 391.29 226.12C395.09 226.12 398.14 226.98 400.6 228.75C402.92 230.43 404.42 232.69 405.32 235.87C406.77 241.05 411.5 244.62 416.87 244.62H460.14C460.9 244.62 461.64 244.53 462.38 244.39C462.33 245.75 462.29 247.12 462.29 248.5C462.29 251.6 462.43 254.64 462.71 257.63C461.87 257.45 461.01 257.35 460.14 257.35V257.37ZM473.12 205.15C471.12 208.65 469.4 212.31 467.96 216.12C463.41 203.95 456.28 193.74 446.66 185.65C448.05 185.99 449.45 186.32 450.86 186.64C451.74 186.84 452.64 186.94 453.52 186.94C456.21 186.94 458.86 186.03 461 184.32C463.85 182.04 465.52 178.59 465.52 174.94V122.04C465.52 118.14 466.24 114.94 467.68 112.5C469.09 110.1 470.89 108.38 473.36 107.1C476.1 105.67 479.13 104.98 482.64 104.98C486.48 104.98 491.55 105.54 493.87 108.19C496.15 110.81 497.31 115.07 497.31 120.85V178.72C497.31 178.72 497.31 178.76 497.31 178.78C497.1 178.91 496.89 179.05 496.68 179.19C487.01 185.99 479.09 194.73 473.12 205.17V205.15ZM558.11 263.3C556.54 266.67 554.64 269.03 552.32 270.51C550 271.99 547.35 272.71 544.21 272.71C541.25 272.71 538.7 271.99 536.38 270.51C534.06 269.03 532.16 266.67 530.59 263.3C528.81 259.49 527.91 254.42 527.91 248.24C527.91 242.06 528.81 236.99 530.59 233.18C532.16 229.82 534.05 227.46 536.38 225.97C538.69 224.49 541.34 223.78 544.48 223.78C547.62 223.78 550.14 224.48 552.34 225.91C554.62 227.4 556.5 229.77 558.09 233.17C559.87 237 560.78 242.07 560.78 248.24C560.78 254.41 559.88 259.48 558.1 263.3H558.11ZM615.59 205.14C608.39 192.55 598.5 182.52 586.2 175.3C585.56 174.92 584.91 174.57 584.25 174.21C591.57 173 598.84 172.21 606.31 171.79C609.51 171.61 612.75 171.52 615.94 171.52C617.19 171.52 618.45 171.54 619.72 171.57C617.77 173.7 616.56 176.54 616.56 179.66V206.92C616.24 206.32 615.92 205.72 615.58 205.13L615.59 205.14ZM803.19 273.04C801.25 274.26 798.41 274.88 794.74 274.88C790.53 274.88 787.13 274.09 784.36 272.46C783.29 271.83 782.35 271.12 781.5 270.31H806.49C805.56 271.33 804.47 272.24 803.18 273.04H803.19Z" fill="white" stroke="white" stroke-miterlimit="10"/>
<path d="M876.18 196.38C864.97 196.4 856.18 186.77 856.63 175.98C857.08 165.03 866.03 156.63 876.83 156.83C887.23 157.03 896.44 165.77 896.19 176.98C895.94 187.94 886.72 196.61 876.18 196.38ZM893.35 176.67C893.47 167.27 886 159.63 876.58 159.51C867.11 159.39 859.49 166.87 859.39 176.37C859.29 186.05 866.66 193.54 876.4 193.65C885.65 193.76 893.23 186.16 893.35 176.67Z" fill="#001551" stroke="white" stroke-width="0.07" stroke-miterlimit="10"/>
<path d="M885.07 187.23C882.763 187.49 881.58 186.52 881.52 184.32C881.5 183.7 881.44 183.08 881.33 182.47C880.94 180.38 879.819 179.17 877.719 178.97C875.959 178.8 874.18 178.94 872.26 178.94V187.24H868.479V165.84C868.479 165.84 868.549 165.73 868.609 165.73C872.449 165.81 876.32 165.67 880.14 166.04C883.74 166.38 885.57 168.96 885.24 172.42C885.02 174.75 883.84 176.2 881.57 176.9C881.23 177 880.889 177.11 880.349 177.28C883.909 178.34 885.04 180.8 884.93 184.08C884.9 185.11 885.01 186.14 885.06 187.25L885.07 187.23ZM872.19 176.24C874.44 176.1 876.479 176.1 878.469 175.83C880.439 175.56 881.49 174.13 881.51 172.19C881.53 170.11 880.659 168.89 878.539 168.58C876.669 168.3 874.749 168.32 872.849 168.28C872.639 168.28 872.219 168.7 872.219 168.93C872.169 171.28 872.19 173.63 872.19 176.25V176.24Z" fill="#001551" stroke="white" stroke-width="0.07" stroke-miterlimit="10"/>
<path d="M814.31 176.22C813.41 176.52 812.52 176.83 811.61 177.13C811.03 177.32 810.43 177.51 809.85 177.7C811.59 178.01 813.28 178.4 814.95 178.83L814.31 176.23V176.22Z" fill="#001551"/>
<path d="M370.12 51.66C377.55 51.66 383.59 49.82 388.22 46.13C392.84 42.45 395.16 37.81 395.16 32.2C395.16 26.59 392.85 21.71 388.22 18.03C383.59 14.35 377.56 12.5 370.12 12.5C362.68 12.5 356.96 14.34 352.43 18.03C347.9 21.71 345.63 26.44 345.63 32.2C345.63 37.96 347.9 42.45 352.43 46.13C356.96 49.82 362.86 51.66 370.12 51.66Z" fill="#001551"/>
<path d="M390.53 160.45V65.6H349.72V160.91C356.55 160.05 363.69 159.54 371.2 159.5C377.94 159.47 384.35 159.82 390.53 160.46V160.45Z" fill="#001551"/>
<path d="M448.79 173.84C450.36 174.22 451.94 174.6 453.53 174.96V122.06C453.53 115.97 454.8 110.77 457.34 106.44C459.88 102.12 463.37 98.79 467.82 96.47C472.26 94.15 477.21 92.99 482.65 92.99C491.9 92.99 498.66 95.44 502.92 100.32C507.18 105.21 509.31 112.06 509.31 120.86V178.73C517.76 177.84 525.74 176.38 533.47 174.6C539.24 173.27 544.55 171.71 549.85 170.15V117.5C549.85 105.81 547.81 95.92 543.73 87.83C539.65 79.74 533.7 73.54 525.91 69.21C518.11 64.89 508.49 62.72 497.07 62.72C485.65 62.72 476.94 64.76 469.32 68.85C461.7 72.93 455.8 78.34 451.63 85.07L448.37 65.61H412.72V164.06C414.34 164.41 415.94 164.78 417.53 165.16C428.52 167.79 437.89 171.2 448.8 173.86L448.79 173.84Z" fill="#001551"/>
<path d="M689.26 172.34C696.89 164.84 701.94 155.65 704.4 144.78H661.13C660.04 148.3 658.27 151.27 655.82 153.67C653.37 156.07 650.47 157.92 647.11 159.19C644.7 160.11 642.02 160.69 639.09 160.95C645.38 161.7 651.52 162.71 657.58 163.89C669.23 166.15 678.76 169.49 689.24 172.34H689.26Z" fill="#001551"/>
<path d="M626.07 159.82C625.13 159.54 624.21 159.21 623.32 158.84C619.69 157.32 616.56 155.12 613.93 152.23C611.3 149.35 609.26 145.91 607.81 141.9C606.36 137.9 605.63 133.41 605.63 128.45C605.63 121.88 606.9 116.16 609.44 111.27C611.98 106.39 615.47 102.62 619.92 99.98C624.36 97.34 629.58 96.02 635.56 96.02C641.91 96.02 647.35 97.46 651.89 100.34C656.42 103.22 659.51 107.23 661.14 112.35H704.41C701.14 97.46 693.39 85.85 681.14 77.52C668.9 69.19 653.79 65.03 635.83 65.03C621.68 65.03 609.21 67.79 598.42 73.32C587.62 78.85 579.19 86.38 573.11 95.9C567.03 105.43 563.99 116.44 563.99 128.93C563.99 141.42 567.02 151.91 573.11 161.36C573.64 162.18 574.21 162.97 574.78 163.77C584.34 161.86 594.48 160.46 605.65 159.83C612.73 159.44 619.5 159.46 626.07 159.82Z" fill="#001551"/>
<path d="M782.34 174.67C794.14 172.02 804.04 168.43 815.38 165.56C817.76 164.96 820.09 164.33 822.44 163.71C824.51 163.47 826.449 163.16 827.849 162.51C828.049 162.54 828.2 162.52 828.27 162.44C833.61 161.63 838.95 160.81 844.28 160C844.54 160.04 844.79 160.03 845.01 159.96C846.93 159.79 848.85 159.67 850.78 159.58V111.71C850.78 100.98 848.1 92.01 842.75 84.8C837.4 77.59 829.91 72.11 820.299 68.34C810.679 64.58 799.349 62.69 786.289 62.69C774.319 62.69 763.71 64.53 754.45 68.22C745.2 71.9 737.81 76.95 732.27 83.35C726.73 89.76 723.509 97.28 722.609 105.93H761.789C762.879 101.13 765.6 97.61 769.95 95.36C774.31 93.12 779.65 92 786.01 92C792 92 796.709 92.88 800.159 94.64C803.599 96.41 806.1 99.05 807.64 102.57C809.18 106.09 809.95 110.58 809.95 116.02H776.75C763.51 116.02 752.53 117.66 743.82 120.94C735.11 124.22 728.72 128.63 724.64 134.15C720.56 139.67 718.52 146.04 718.52 153.25C718.52 159.98 720.29 166.1 723.83 171.63C725.69 174.54 728.12 177.11 731.08 179.37C731.55 179.4 732.01 179.44 732.49 179.46C750.83 180.34 767 178.08 782.32 174.63L782.34 174.67ZM763.719 143.2C765.169 141.28 767.39 139.8 770.39 138.75C773.38 137.71 777.15 137.19 781.68 137.19H808.07V137.43C807.34 140.95 806.209 144.2 804.669 147.16C803.129 150.12 801.18 152.73 798.82 154.97C796.46 157.22 793.65 158.98 790.38 160.25C787.12 161.53 783.31 162.17 778.95 162.17C775.69 162.17 772.729 161.73 770.109 160.85C767.479 159.97 765.389 158.61 763.849 156.77C762.309 154.93 761.539 152.65 761.539 149.92C761.539 147.36 762.259 145.12 763.719 143.2Z" fill="#001551"/>
<path d="M391.57 179.03C391.22 179.03 390.88 179.06 390.52 179.06C378.56 179.19 367.79 181.57 358.26 186.23C356.87 186.91 355.5 187.64 354.16 188.42C343.36 194.68 334.93 203.21 328.85 214C322.77 224.79 319.73 237.26 319.73 251.41C319.73 265.56 322.76 277.44 328.85 288.15C334.93 298.85 343.36 307.29 354.16 313.46C364.95 319.62 377.42 322.71 391.57 322.71C409.35 322.71 424.4 317.91 436.74 308.29C449.07 298.68 456.87 285.7 460.14 269.38H416.87C415.78 273.37 414.01 276.73 411.56 279.45C409.11 282.17 406.21 284.26 402.85 285.71C399.49 287.16 395.64 287.89 391.29 287.89C386.94 287.89 382.67 287.03 379.05 285.31C375.42 283.59 372.29 281.09 369.66 277.82C367.03 274.56 364.99 270.66 363.54 266.12C362.09 261.59 361.36 256.51 361.36 250.88C361.36 243.44 362.63 236.96 365.17 231.42C367.71 225.89 371.2 221.62 375.65 218.63C380.09 215.64 385.31 214.14 391.29 214.14C397.64 214.14 403.08 215.77 407.62 219.04C412.15 222.31 415.24 226.84 416.87 232.65H460.14C456.87 215.78 449.12 202.63 436.87 193.2C433.33 190.47 429.52 188.19 425.5 186.25C421.47 184.31 417.2 182.76 412.7 181.61C406.15 179.94 399.13 179.05 391.56 179.05L391.57 179.03Z" fill="#001551"/>
<path d="M556.61 179.12H556.34L556.25 179.23C555.8 179.16 555.59 179.25 555.51 179.43L555.43 179.46C553.1 179.79 551.19 180.38 549.67 181.19C549.34 181.26 549.01 181.32 548.69 181.39C547.78 181.35 547.23 181.5 547.1 181.89L547.05 181.91C545.89 181.92 544.98 182.1 544.54 182.58H544.52C543.2 182.6 542.19 182.83 541.58 183.33L541.34 183.3L541.2 183.38C540.13 183.46 538.97 183.48 538.55 184.02C538.23 184.09 537.91 184.15 537.6 184.21C533.21 184.97 528.84 185.74 524.8 186.81L524.55 186.79L524.44 186.88C521.02 187.04 517.81 187.47 514.84 188.21C514.41 188.23 513.98 188.26 513.55 188.28C510.24 188.61 506.91 188.83 503.58 188.99C495.37 194.77 488.67 202.13 483.54 211.11C477.37 221.91 474.29 234.38 474.29 248.53C474.29 262.68 477.37 274.61 483.54 285.4C489.7 296.2 498.05 304.68 508.57 310.84C519.09 317 530.97 320.09 544.21 320.09C557.45 320.09 569.61 317 580.13 310.84C590.65 304.68 598.99 296.19 605.16 285.4C611.32 274.61 614.41 262.23 614.41 248.26C614.41 234.29 611.32 221.91 605.16 211.12C598.99 200.33 590.65 191.85 580.13 185.68C573.91 182.04 567.18 179.5 559.95 178.01C559.55 178.16 559.14 178.3 558.74 178.45C557.81 178.56 556.82 178.64 556.6 179.13L556.61 179.12ZM568.99 228.12C571.53 233.56 572.8 240.28 572.8 248.26C572.8 256.24 571.53 262.95 568.99 268.39C566.45 273.83 563.05 277.91 558.79 280.64C554.52 283.36 549.67 284.72 544.23 284.72C538.79 284.72 534.2 283.36 529.94 280.64C525.68 277.92 522.28 273.84 519.74 268.39C517.2 262.95 515.93 256.24 515.93 248.26C515.93 240.28 517.2 233.57 519.74 228.12C522.28 222.68 525.68 218.6 529.94 215.88C534.2 213.16 539.06 211.8 544.5 211.8C549.94 211.8 554.75 213.16 558.92 215.88C563.09 218.6 566.45 222.68 568.99 228.12Z" fill="#001551"/>
<path d="M719.19 176.42C718.48 176.42 717.8 176.48 717.1 176.5C717.79 176.6 718.49 176.7 719.19 176.8V176.42Z" fill="#001551"/>
<path d="M690.88 183.35C687.45 185.18 684.25 187.29 681.36 189.75C676.46 193.93 672.2 198.91 668.57 204.71L665.8 186.54L664.76 179.68H628.57V316.82H669.39V255.59C669.39 248.7 670.25 242.94 671.97 238.31C673.69 233.68 676.14 230.01 679.32 227.29C682.49 224.57 686.3 222.62 690.75 221.44C695.19 220.26 700.14 219.67 705.58 219.67H719.19V188.31C712.3 187.58 705.46 186.54 698.67 185.13C696 184.58 693.44 183.95 690.89 183.33L690.88 183.35Z" fill="#001551"/>
<path d="M814.95 178.82C813.28 178.39 811.59 178.01 809.85 177.69C797.82 181.61 785.02 184.97 770.52 187.19C764.61 188.09 758.76 188.71 752.95 189.08C744.52 195.07 737.75 202.71 732.69 212.07C726.7 223.14 723.71 235.74 723.71 249.89C723.71 264.04 726.74 275.88 732.83 286.49C738.91 297.1 747.29 305.36 758 311.25C768.7 317.14 781.13 320.09 795.28 320.09C805.98 320.09 815.78 318.05 824.67 313.97C833.56 309.89 841.09 304.36 847.25 297.37C853.41 290.39 857.77 282.54 860.31 273.83H818.68C816.5 277.64 813.46 280.77 809.56 283.22C805.66 285.67 800.72 286.89 794.73 286.89C788.38 286.89 782.89 285.53 778.27 282.81C773.64 280.09 770.11 276.28 767.66 271.38C765.72 267.49 764.58 263.12 764.18 258.32H863.58C863.94 255.96 864.17 253.65 864.26 251.38C864.35 249.11 864.4 247.07 864.4 245.26C864.4 231.84 861.45 220 855.56 209.75C849.93 199.96 842.24 192.14 832.55 186.23C832.1 185.95 831.67 185.66 831.2 185.39C826.19 182.49 820.77 180.31 814.95 178.81V178.82ZM765.12 234.65C765.82 231.32 766.84 228.32 768.21 225.67C771.02 220.23 774.78 216.15 779.5 213.42C784.22 210.7 789.47 209.34 795.28 209.34C802.9 209.34 809.29 211.65 814.46 216.28C819.63 220.9 822.4 227.03 822.76 234.65H765.11H765.12Z" fill="#001551"/>
<path d="M876.38 176.62L876.42 176.6C876.41 176.6 876.4 176.61 876.38 176.62Z" fill="#001551"/>
<path d="M876.35 176.6C876.39 176.6 876.42 176.61 876.46 176.62L876.35 176.6Z" fill="#001551"/>
<path d="M29.5598 32.96C37.4898 34.98 46.9098 36.78 56.2298 39.85C130.25 64.24 200.4 112.84 265.28 193.07C280.74 212.19 295.27 234.72 310.28 255.48C313.33 259.7 314.26 263.77 312.4 271.32C309.2 284.29 308.11 302.97 303.22 309.76C298.37 316.48 289.91 311.75 283.03 311.54C223.72 309.74 164.42 307.63 105.11 306.27C99.9898 306.15 99.1698 301.06 98.2398 292.94C88.7798 210.08 72.1398 134.92 45.1098 70.95C39.7198 58.19 34.5098 45.08 29.5498 32.97L29.5598 32.96Z" fill="#324C7F"/>
<path d="M112.35 49.9C125.97 47.75 139.6 45.27 153.23 43.69C156.47 43.31 159.96 45.29 162.94 47.32C207.21 77.46 249.02 113.42 289.04 153.96C300.7 165.78 304.35 180.78 304.41 198.64C273.91 171.3 243.34 142.79 212.01 116.1C180.56 89.31 147.78 66.1 112.35 49.89V49.9Z" fill="#324C7F"/>
<path d="M82.7999 263.73C81.6599 259.72 80.5499 255.68 79.3799 251.7C66.3699 207.57 51.6299 165.12 29.2099 130.17C28.0599 128.37 27.1199 125.97 25.6799 124.93C11.6199 114.73 10.7599 96.88 14.2599 75.73C16.1899 64.08 16.9599 52.14 18.5299 37.85C52.5399 105.42 80.7699 174.88 82.7899 263.74L82.7999 263.73Z" fill="#324C7F"/>
<path d="M297.99 135.97C258.78 104.54 219.19 72.81 180.42 41.73C189.17 35.36 212.35 36.47 221.32 44.81C242.62 64.61 263.64 85.09 285.35 103.87C294.58 111.86 298.79 121.95 298 135.96L297.99 135.97Z" fill="#324C7F"/>
<path d="M277.95 86.45C264.34 74.57 252.57 64.66 241.07 54.09C235.54 49.01 233.6 20.99 238.57 15.07C240.72 12.5 245.31 11.74 247.93 13.33C255.38 17.85 262.48 23.75 269.48 29.71C271.17 31.15 272.7 34.74 273.04 37.66C274.8 52.84 276.15 68.12 277.95 86.44V86.45Z" fill="#D60D26"/>
</g>
<defs>
<clipPath id="clip0_1705_2610">
<rect width="903.37" height="335.21" fill="white"/>
</clipPath>
</defs>
</svg>
