<svg width="713" height="245" viewBox="0 0 713 245" fill="none" xmlns="http://www.w3.org/2000/svg">
<g clip-path="url(#clip0_1700_11079)">
<path d="M682.378 149.165C673.529 149.165 666.585 141.571 666.923 133.06C667.285 124.405 674.349 117.775 682.885 117.943C691.107 118.112 698.364 125.007 698.171 133.856C697.978 142.511 690.697 149.358 682.354 149.165H682.378ZM695.929 133.59C696.025 126.165 690.118 120.137 682.668 120.041C675.193 119.944 669.165 125.851 669.093 133.349C669.021 140.992 674.831 146.923 682.523 146.995C689.829 147.092 695.808 141.088 695.905 133.59H695.929Z" fill="#001551" stroke="white" stroke-width="0.02" stroke-miterlimit="10"/>
<path d="M689.394 141.956C687.578 142.165 686.646 141.402 686.597 139.666C686.597 139.184 686.525 138.677 686.453 138.195C686.139 136.532 685.247 135.591 683.608 135.423C682.209 135.302 680.811 135.399 679.292 135.399V141.956H676.302V125.056C676.302 125.056 676.35 124.959 676.398 124.959C679.436 125.007 682.498 124.911 685.512 125.2C688.358 125.465 689.804 127.515 689.539 130.239C689.37 132.071 688.43 133.229 686.646 133.783C686.38 133.856 686.115 133.952 685.681 134.073C688.502 134.916 689.394 136.845 689.298 139.449C689.274 140.269 689.37 141.088 689.394 141.956ZM679.219 133.277C681.004 133.18 682.595 133.18 684.186 132.939C685.729 132.722 686.573 131.589 686.597 130.07C686.597 128.431 685.922 127.467 684.259 127.225C682.788 127.008 681.269 127.033 679.774 126.984C679.605 126.984 679.267 127.322 679.267 127.491C679.219 129.347 679.267 131.204 679.267 133.277H679.219Z" fill="#001551" stroke="white" stroke-width="0.02" stroke-miterlimit="10"/>
<path d="M633.288 129.299C632.589 129.54 631.865 129.781 631.166 130.022C630.708 130.167 630.226 130.311 629.768 130.48C631.142 130.721 632.468 131.035 633.794 131.372L633.288 129.323V129.299Z" fill="#001551"/>
<path d="M282.442 30.9324C288.325 30.9324 293.075 29.4858 296.74 26.5686C300.381 23.6513 302.213 19.9867 302.213 15.5747C302.213 11.1627 300.381 7.28105 296.74 4.38792C293.075 1.47067 288.325 0.0241089 282.442 0.0241089C276.559 0.0241089 272.05 1.47067 268.481 4.38792C264.913 7.30516 263.104 11.018 263.104 15.5747C263.104 20.1314 264.889 23.6755 268.481 26.5686C272.074 29.4858 276.727 30.9324 282.442 30.9324Z" fill="#001551"/>
<path d="M298.572 116.858V41.9504H266.335V117.22C271.736 116.545 277.378 116.135 283.309 116.111C288.638 116.087 293.701 116.352 298.572 116.858Z" fill="#001551"/>
<path d="M344.577 127.418C345.807 127.732 347.06 128.021 348.314 128.31V86.5288C348.314 81.731 349.327 77.6083 351.328 74.1847C353.329 70.7612 356.078 68.1574 359.598 66.301C363.119 64.4686 367.025 63.5525 371.317 63.5525C378.622 63.5525 383.951 65.4812 387.327 69.3387C390.702 73.1962 392.366 78.5968 392.366 85.5644V131.276C399.045 130.577 405.338 129.419 411.438 128.021C415.995 126.96 420.19 125.731 424.386 124.501V82.9123C424.386 73.6784 422.77 65.867 419.564 59.478C416.333 53.089 411.655 48.1948 405.482 44.7712C399.31 41.3477 391.715 39.6359 382.697 39.6359C373.679 39.6359 366.784 41.2513 360.78 44.4819C354.776 47.7126 350.098 51.98 346.819 57.284L344.239 41.9263H316.077V119.679C317.355 119.969 318.633 120.234 319.887 120.547C328.567 122.621 335.969 125.321 344.577 127.418Z" fill="#001551"/>
<path d="M534.527 126.237C540.555 120.306 544.533 113.049 546.487 104.466H512.321C511.453 107.239 510.054 109.577 508.125 111.482C506.196 113.387 503.906 114.833 501.253 115.846C499.349 116.569 497.227 117.027 494.912 117.244C499.879 117.847 504.726 118.642 509.524 119.559C518.734 121.343 526.257 123.971 534.527 126.237Z" fill="#001551"/>
<path d="M484.616 116.352C483.869 116.135 483.145 115.87 482.446 115.581C479.577 114.375 477.117 112.639 475.02 110.373C472.946 108.107 471.331 105.382 470.197 102.224C469.04 99.0656 468.485 95.5215 468.485 91.5917C468.485 86.4082 469.498 81.8756 471.499 78.0181C473.501 74.1606 476.273 71.1951 479.77 69.0976C483.29 67.0001 487.389 65.9634 492.115 65.9634C497.13 65.9634 501.422 67.0965 505.014 69.3869C508.583 71.6532 511.042 74.8356 512.32 78.886H546.486C543.906 67.1206 537.782 57.959 528.113 51.3772C518.444 44.7953 506.509 41.5164 492.332 41.5164C481.168 41.5164 471.306 43.7104 462.771 48.0742C454.236 52.438 447.581 58.393 442.783 65.9152C437.984 73.4373 435.573 82.1408 435.573 92.0016C435.573 101.862 437.96 110.156 442.783 117.606C443.192 118.257 443.651 118.884 444.109 119.51C451.656 117.992 459.661 116.882 468.485 116.4C474.079 116.087 479.432 116.111 484.616 116.4V116.352Z" fill="#001551"/>
<path d="M608.043 128.069C617.374 125.972 625.187 123.151 634.132 120.885C636.013 120.402 637.845 119.92 639.702 119.414C641.341 119.221 642.86 118.98 643.969 118.474C644.138 118.498 644.235 118.474 644.307 118.425C648.526 117.775 652.746 117.148 656.966 116.497C657.183 116.521 657.375 116.521 657.544 116.473C659.063 116.328 660.582 116.256 662.101 116.183V78.3797C662.101 69.9173 659.979 62.8291 655.76 57.1393C651.54 51.4495 645.609 47.1098 638.038 44.1443C630.443 41.1789 621.498 39.6841 611.178 39.6841C601.726 39.6841 593.335 41.1307 586.03 44.0479C578.724 46.9651 572.889 50.9432 568.525 56.0062C564.16 61.0691 561.605 67.0001 560.905 73.8471H591.865C592.733 70.062 594.878 67.2653 598.302 65.5053C601.75 63.7453 605.97 62.8532 610.985 62.8532C615.711 62.8532 619.424 63.5524 622.149 64.9508C624.873 66.3491 626.85 68.4225 628.056 71.2192C629.261 73.9918 629.888 77.5359 629.888 81.8515H603.655C593.191 81.8515 584.535 83.1534 577.639 85.7331C570.767 88.3369 565.704 91.8087 562.497 96.1725C559.266 100.536 557.65 105.575 557.65 111.265C557.65 116.569 559.049 121.415 561.846 125.779C563.317 128.069 565.221 130.119 567.56 131.903C567.946 131.903 568.284 131.951 568.669 131.975C583.16 132.674 595.939 130.89 608.019 128.166L608.043 128.069ZM593.335 103.212C594.469 101.694 596.229 100.536 598.592 99.6924C600.955 98.8727 603.92 98.4629 607.513 98.4629H628.369V98.6557C627.791 101.428 626.899 104.008 625.693 106.347C624.463 108.685 622.944 110.735 621.064 112.519C619.207 114.303 616.989 115.677 614.409 116.69C611.829 117.702 608.815 118.208 605.391 118.208C602.811 118.208 600.472 117.871 598.399 117.172C596.325 116.473 594.661 115.412 593.456 113.941C592.25 112.495 591.623 110.686 591.623 108.541C591.623 106.515 592.202 104.755 593.335 103.237V103.212Z" fill="#001551"/>
<path d="M299.392 131.517C299.103 131.517 298.838 131.517 298.573 131.517C289.121 131.613 280.61 133.494 273.087 137.183C271.978 137.713 270.917 138.292 269.856 138.918C261.32 143.861 254.666 150.587 249.868 159.122C245.069 167.657 242.658 177.494 242.658 188.68C242.658 199.867 245.045 209.246 249.868 217.684C254.666 226.146 261.32 232.801 269.856 237.671C278.367 242.541 288.229 244.976 299.417 244.976C313.449 244.976 325.361 241.191 335.102 233.596C344.843 226.002 351.015 215.755 353.595 202.857H319.429C318.561 206.015 317.163 208.667 315.234 210.813C313.305 212.959 311.014 214.622 308.362 215.755C305.71 216.912 302.672 217.467 299.224 217.467C295.776 217.467 292.424 216.792 289.555 215.418C286.686 214.068 284.226 212.091 282.129 209.511C280.055 206.931 278.44 203.845 277.306 200.277C276.149 196.709 275.594 192.683 275.594 188.246C275.594 182.364 276.607 177.252 278.608 172.889C280.61 168.525 283.382 165.15 286.879 162.787C290.399 160.424 294.498 159.243 299.224 159.243C304.239 159.243 308.531 160.545 312.123 163.1C315.692 165.68 318.151 169.272 319.429 173.853H353.595C351.015 160.521 344.891 150.153 335.222 142.704C332.425 140.558 329.411 138.75 326.253 137.207C323.07 135.664 319.694 134.458 316.15 133.542C310.966 132.216 305.42 131.517 299.465 131.517H299.392Z" fill="#001551"/>
<path d="M429.739 131.589H429.522L429.449 131.686C429.088 131.637 428.919 131.686 428.871 131.83H428.798C426.966 132.12 425.447 132.578 424.241 133.205C423.976 133.253 423.735 133.301 423.47 133.349C422.746 133.325 422.312 133.446 422.216 133.735H422.192C421.275 133.759 420.552 133.904 420.215 134.29C419.178 134.29 418.382 134.482 417.9 134.892H417.707L417.586 134.94C416.743 135.013 415.826 135.013 415.489 135.447C415.248 135.495 414.982 135.543 414.741 135.591C411.269 136.194 407.821 136.797 404.639 137.641H404.446L404.349 137.689C401.649 137.809 399.117 138.147 396.754 138.726C396.417 138.726 396.079 138.774 395.741 138.774C393.113 139.039 390.509 139.208 387.857 139.328C381.371 143.885 376.066 149.695 372.016 156.808C367.145 165.342 364.71 175.179 364.71 186.366C364.71 197.553 367.145 206.955 372.016 215.49C376.886 224.025 383.469 230.727 391.787 235.573C400.106 240.443 409.485 242.878 419.949 242.878C430.414 242.878 440.01 240.443 448.329 235.573C456.647 230.703 463.229 224.001 468.1 215.49C472.97 206.979 475.406 197.191 475.406 186.149C475.406 175.107 472.97 165.342 468.1 156.808C463.229 148.297 456.647 141.595 448.329 136.725C443.41 133.856 438.105 131.854 432.391 130.673C432.077 130.794 431.74 130.914 431.426 131.011C430.703 131.107 429.907 131.155 429.739 131.541V131.589ZM439.504 170.285C441.505 174.576 442.518 179.88 442.518 186.197C442.518 192.514 441.505 197.794 439.504 202.109C437.502 206.401 434.802 209.631 431.451 211.777C428.075 213.923 424.241 215.008 419.949 215.008C415.657 215.008 412.041 213.923 408.665 211.777C405.29 209.631 402.613 206.401 400.612 202.109C398.611 197.818 397.598 192.514 397.598 186.197C397.598 179.88 398.611 174.6 400.612 170.285C402.613 165.993 405.314 162.763 408.665 160.617C412.041 158.471 415.874 157.386 420.166 157.386C424.458 157.386 428.268 158.471 431.547 160.617C434.826 162.763 437.502 165.993 439.504 170.285Z" fill="#001551"/>
<path d="M558.156 129.468C557.602 129.468 557.047 129.516 556.517 129.54C557.071 129.612 557.626 129.709 558.156 129.781V129.492V129.468Z" fill="#001551"/>
<path d="M535.805 134.94C533.104 136.387 530.573 138.051 528.282 140.003C524.424 143.306 521.049 147.236 518.179 151.817L515.985 137.472L515.166 132.047H486.569V240.371H518.806V192.007C518.806 186.559 519.481 182.026 520.856 178.362C522.206 174.697 524.159 171.804 526.667 169.658C529.174 167.512 532.188 165.969 535.684 165.029C539.205 164.089 543.111 163.631 547.403 163.631H558.156V138.87C552.707 138.292 547.306 137.472 541.953 136.363C539.832 135.929 537.83 135.423 535.805 134.94Z" fill="#001551"/>
<path d="M633.818 131.348C632.492 131.011 631.166 130.697 629.792 130.456C620.292 133.566 610.189 136.194 598.736 137.954C594.058 138.677 589.453 139.16 584.848 139.449C578.193 144.174 572.84 150.226 568.838 157.603C564.112 166.331 561.749 176.288 561.749 187.475C561.749 198.662 564.136 207.992 568.958 216.382C573.757 224.772 580.387 231.282 588.85 235.935C597.313 240.588 607.127 242.927 618.29 242.927C626.754 242.927 634.469 241.311 641.51 238.105C648.526 234.874 654.482 230.51 659.352 224.989C664.223 219.468 667.671 213.272 669.672 206.401H636.784C635.072 209.414 632.661 211.874 629.575 213.827C626.488 215.755 622.582 216.72 617.856 216.72C612.841 216.72 608.501 215.635 604.86 213.489C601.219 211.343 598.423 208.33 596.47 204.472C594.926 201.41 594.034 197.963 593.721 194.153H672.228C672.517 192.297 672.686 190.464 672.758 188.68C672.831 186.896 672.855 185.281 672.855 183.834C672.855 173.226 670.516 163.896 665.862 155.795C661.402 148.056 655.35 141.884 647.682 137.231C647.321 137.014 646.983 136.773 646.621 136.58C642.667 134.29 638.375 132.554 633.794 131.372L633.818 131.348ZM594.468 175.444C595.023 172.816 595.819 170.43 596.904 168.356C599.122 164.065 602.087 160.834 605.825 158.688C609.538 156.543 613.709 155.458 618.29 155.458C624.318 155.458 629.358 157.29 633.432 160.93C637.507 164.571 639.701 169.417 639.991 175.444H594.468Z" fill="#001551"/>
<path d="M13.4541 16.1533C19.7231 17.7445 27.1494 19.167 34.5275 21.6021C92.9978 40.8655 148.406 79.2477 199.643 142.607C211.867 157.7 223.32 175.493 235.183 191.911C237.594 195.238 238.342 198.469 236.871 204.424C234.339 214.67 233.495 229.425 229.613 234.778C225.78 240.082 219.101 236.345 213.676 236.176C166.827 234.754 119.979 233.09 73.1541 232.005C69.1034 231.909 68.4523 227.882 67.729 221.469C60.2544 156.036 47.1137 96.6547 25.7509 46.1454C21.4832 36.0677 17.3843 25.7248 13.4541 16.1533Z" fill="#324C7F"/>
<path d="M78.8444 29.5341C89.5981 27.8464 100.376 25.8694 111.13 24.6399C113.685 24.3505 116.434 25.8935 118.797 27.5089C153.759 51.3049 186.791 79.7058 218.402 111.747C227.612 121.078 230.506 132.939 230.53 147.043C206.442 125.441 182.283 102.923 157.544 81.8515C132.709 60.7076 106.814 42.3603 78.8203 29.5582L78.8444 29.5341Z" fill="#324C7F"/>
<path d="M55.5043 198.421C54.6122 195.262 53.7201 192.056 52.8039 188.921C42.5324 154.059 30.8865 120.547 13.1887 92.9418C12.2725 91.5194 11.5491 89.6147 10.3918 88.795C-0.723585 80.7425 -1.39871 66.6384 1.37411 49.9306C2.89313 40.7208 3.52003 31.294 4.74972 20.0108C31.6099 73.365 53.913 128.238 55.5043 198.421Z" fill="#324C7F"/>
<path d="M225.467 97.5226C194.483 72.6899 163.235 47.6402 132.613 23.0968C139.533 18.058 157.834 18.95 164.923 25.5319C181.752 41.1789 198.341 57.3563 215.484 72.1836C222.766 78.5003 226.093 86.4564 225.467 97.5226Z" fill="#324C7F"/>
<path d="M209.649 58.393C198.896 49.0144 189.613 41.1789 180.523 32.837C176.158 28.8107 174.615 6.7024 178.545 2.02517C180.233 -1.72305e-05 183.874 -0.602753 185.948 0.650937C191.831 4.21913 197.449 8.87225 202.97 13.5977C204.297 14.7308 205.526 17.5758 205.791 19.8903C207.19 31.8726 208.251 43.9515 209.673 58.4171L209.649 58.393Z" fill="#D60D26"/>
</g>
<defs>
<clipPath id="clip0_1700_11079">
<rect width="713" height="245" fill="white"/>
</clipPath>
</defs>
</svg>
